<svg width="28" height="28" viewBox="0 0 28 28" fill="none" xmlns="http://www.w3.org/2000/svg">
<path d="M27.9996 14.3114C27.9996 13.1603 27.9043 12.3203 27.698 11.4492H14.2852V16.6447H22.1582C21.9995 17.9359 21.1424 19.8804 19.2375 21.187L19.2108 21.3609L23.4517 24.5806L23.7455 24.6093C26.4439 22.167 27.9996 18.5737 27.9996 14.3114Z" fill="#4285F4"/>
<path d="M14.2874 28.0002C18.1446 28.0002 21.3827 26.7557 23.7478 24.6091L19.2398 21.1868C18.0335 22.0112 16.4144 22.5868 14.2874 22.5868C10.5097 22.5868 7.3033 20.1446 6.16033 16.769L5.99279 16.783L1.58306 20.1275L1.52539 20.2846C3.87459 24.8579 8.70005 28.0002 14.2874 28.0002Z" fill="#34A853"/>
<path d="M6.15873 16.7695C5.85714 15.8984 5.6826 14.965 5.6826 14.0006C5.6826 13.0361 5.85714 12.1028 6.14286 11.2317L6.13487 11.0461L1.66987 7.64795L1.52379 7.71605C0.555567 9.61386 0 11.745 0 14.0006C0 16.2562 0.555567 18.3872 1.52379 20.285L6.15873 16.7695Z" fill="#FBBC05"/>
<path d="M14.2874 5.41333C16.97 5.41333 18.7795 6.54889 19.8113 7.49785L23.843 3.64002C21.3669 1.38446 18.1446 0 14.2874 0C8.70005 0 3.87459 3.14222 1.52539 7.71554L6.14446 11.2312C7.30331 7.8556 10.5097 5.41333 14.2874 5.41333Z" fill="#EB4335"/>
</svg>
